<svg width="295" height="376" viewBox="0 0 295 376" fill="none" xmlns="http://www.w3.org/2000/svg">
<path d="M84.0789 75.9252C78.8386 63.5552 73.428 51.2522 68.5019 38.7583C67.5203 36.2687 67.5023 32.5382 68.7517 30.363C69.4652 29.1209 73.9766 28.9958 76.1894 29.8654C85.2447 33.4242 94.2557 37.1979 102.937 41.5778C112.78 46.5436 118.837 55.0859 122.669 65.255C125.348 72.3636 127.933 79.5077 130.619 86.7955C136.908 76.9347 143.169 67.1184 149.45 57.2714C155.378 57.3599 158.618 61.0262 161.483 65.8277C165.511 72.5771 170.107 78.9874 174.827 86.0952C176.592 81.5993 178.277 77.2838 179.98 72.9751C183.827 63.2385 186.971 53.1866 195.436 45.9923C206.385 36.687 219.462 31.9971 232.918 28.135C236.359 27.1475 239.806 31.592 238.374 35.0653C234.409 44.6824 230.132 54.1705 226.039 63.736C224.281 67.8458 222.675 72.0207 220.678 76.6435C220.316 77.6605 220.275 78.2001 220.235 78.7397C220.675 78.4248 221.114 78.11 221.554 77.7951C229.168 70.9414 236.31 63.4446 244.524 57.4045C253.784 50.5945 263.901 44.9133 273.857 39.1032C278.89 36.1662 285.922 37.7382 288.132 41.6993C288.615 42.5633 289.001 44.0868 288.573 44.7645C277.917 61.6357 271.835 81.5359 256.216 95.0841C250.036 100.445 242.803 104.582 236.179 109.452C234.823 110.449 233.159 112.217 233.137 113.654C232.911 127.927 233 142.204 233 156.688C235.495 153.08 237.766 149.695 240.141 146.385C244.212 140.712 250.426 138.714 256.741 137.075C261.482 135.844 266.978 140.343 266.983 145.351C267.015 177.183 267.752 209.04 266.698 240.836C266.126 258.103 259.429 272.932 241.457 280.397C229.318 285.439 217.913 292.224 206.027 297.908C202.183 299.746 200.823 302.236 200.957 306.289C201.401 319.693 201.656 333.103 202.004 346.511C202.161 352.567 200.486 354.229 194.782 354.117C177.982 353.789 161.171 354 144.365 354C132.903 354 121.441 354.018 109.979 353.992C104.305 353.98 102.927 352.727 103.026 347.148C103.276 333.227 103.524 319.304 104.091 305.395C104.246 301.606 102.714 299.689 99.6105 298.167C87.0631 292.013 74.7262 285.402 62.0032 279.641C49.3359 273.905 42.743 263.903 40.0891 250.914C38.8856 245.022 38.1326 238.934 38.0894 232.929C37.8858 204.599 37.9967 176.266 37.9998 147.934C38.0009 138.863 42.8109 135.53 51.4997 137.937C62.4049 140.957 68.8517 148.231 72.9983 158.47C72.9983 143.434 73.0709 128.398 72.8689 113.365C72.8516 112.077 71.2237 110.535 69.9817 109.584C62.1418 103.578 53.3027 98.5696 46.5463 91.5458C39.9379 84.6759 35.1803 75.9455 30.057 67.7523C25.8882 61.0855 22.3414 54.0265 18.5917 47.102C15.819 41.9818 17.9969 38.4299 23.8132 37.9623C31.3207 37.3588 37.6128 40.9 43.0692 44.8766C55.2878 53.7814 66.8069 63.6456 78.621 73.1064C80.0111 74.2196 81.4643 75.2538 83.3449 76.773C84.1369 77.3531 84.4723 77.4847 84.8077 77.6163C84.5648 77.0526 84.3219 76.4889 84.0789 75.9252ZM82.8016 197.221C83.137 197.353 83.4724 197.484 83.8078 197.616C83.5649 197.052 83.3221 196.489 82.9995 195.18C80.7762 190.257 78.5529 185.333 76.1626 180.039C75.5882 190.984 76.5731 193.536 82.8016 197.221ZM62.6026 166.082C60.5229 155.77 55.8573 149.882 48.9994 149.224C48.9994 172.893 48.8095 196.54 49.0903 220.182C49.207 230.009 49.9195 239.875 51.119 249.63C52.115 257.729 56.4912 264.393 63.8059 268.203C76.776 274.959 89.9933 281.246 103.169 287.6C108.868 290.349 113.935 294.324 114.58 300.527C115.484 309.213 114.727 318.08 114.548 326.867C114.44 332.227 114.082 337.581 113.85 342.631C121.144 342.631 127.553 342.631 133.999 342.631C133.999 326.602 133.523 310.923 134.16 295.29C134.611 284.212 130.565 275.356 122.74 268.489C113.238 260.151 103.206 252.319 92.8169 245.116C81.6491 237.372 71.4832 229.302 69.337 214.773C68.2695 207.547 67.0812 200.337 66.1261 193.096C64.9754 184.372 64.0145 175.623 62.6026 166.082ZM187.024 263.461C185.493 264.993 183.891 266.46 182.443 268.067C175.299 275.998 170.038 284.506 170.861 295.991C171.539 305.439 170.999 314.974 170.999 324.471C170.999 330.57 170.999 336.67 170.999 342.721C177.96 342.721 184.364 342.721 191.474 342.721C190.974 333.034 190.398 323.655 190.044 314.267C189.881 309.954 189.364 305.422 190.412 301.35C192.055 294.964 195.712 290.231 202.626 287.507C213.344 283.283 223.637 277.895 233.848 272.506C238.873 269.855 244.029 266.767 247.858 262.687C254.61 255.493 255.908 245.959 255.953 236.461C256.082 209.138 255.999 181.814 255.999 154.49C255.999 152.722 255.999 150.955 255.999 149.188C255.571 148.854 255.143 148.52 254.715 148.186C252.147 150.414 249.241 152.358 247.078 154.927C241.599 161.432 242.457 169.854 241.109 177.52C239.028 189.35 237.824 201.333 235.954 213.205C233.985 225.708 227.574 235.126 216.682 242.034C206.6 248.428 197.231 255.946 187.024 263.461ZM172.576 243.949C171.984 244.534 171.268 245.038 170.817 245.717C164.685 254.937 160.494 264.908 158.919 275.947C158.501 278.874 157.596 281.704 153.755 282.029C150.242 282.326 148.017 280.74 147.044 277.57C144.933 270.686 143.41 263.595 140.912 256.862C137.834 248.569 133.539 241.249 124.026 238.324C119.823 237.032 115.987 234.204 112.311 231.61C101.69 224.116 91.2354 216.388 80.0942 208.3C80.389 221.13 87.2541 228.015 96.2105 234.15C109.24 243.075 122.765 251.502 133.218 263.711C140.225 271.895 145.399 280.652 145.072 292.073C144.677 305.892 144.99 319.731 144.996 333.561C144.998 336.659 144.997 339.757 144.997 342.687C150.361 342.687 155.101 342.687 159.999 342.687C159.999 326.06 160.301 309.738 159.898 293.434C159.605 281.562 164.612 272.105 171.97 263.631C184.953 248.682 202.535 239.481 217.967 227.59C221.378 224.962 225.498 214.334 224.07 210.092C215.453 215.719 206.411 220.813 198.336 227.139C191.123 232.79 183.704 237.696 175.203 241.045C174.324 241.392 173.777 242.582 172.576 243.949ZM150.03 231.348C150.978 232.592 151.925 233.835 153.172 235.471C157.319 227.853 161.501 220.692 165.173 213.279C168.727 206.103 172.091 198.116 169.464 190.401C165.285 178.128 159.399 166.435 154.235 154.497C153.526 154.542 152.817 154.587 152.108 154.632C147.128 164.94 141.468 174.994 137.467 185.669C135.606 190.633 136.375 196.868 136.989 202.413C138.175 213.129 145.035 221.467 150.03 231.348ZM146.966 131.46C148.98 133.054 150.995 134.649 153.363 136.523C158.07 132.362 162.92 128.687 167.004 124.3C171.638 119.323 173.254 113.345 171.126 106.41C167.317 93.9985 160.258 83.4512 152.315 71.4823C146.526 82.1067 140.758 91.5268 136.137 101.48C130.843 112.885 134.125 123.702 146.966 131.46ZM195.665 117.029C203.288 113.292 210.97 109.67 218.517 105.786C225.94 101.967 233.682 98.5315 240.47 93.768C251.838 85.7909 260.484 75.2278 266.243 62.4211C267.632 59.3306 269.584 56.4931 271.278 53.5392C270.817 53.1308 270.356 52.7223 269.895 52.3138C260.218 60.0871 250.506 67.8183 240.874 75.6471C233.414 81.7107 226.579 88.7323 218.512 93.8126C208.774 99.9449 198.082 104.587 187.686 109.633C184.653 111.105 182.609 112.356 182.814 116.358C182.943 118.886 181.414 121.552 180.421 124.075C176.605 133.769 167.911 138.667 160.474 144.548C162.787 148.51 165.205 152.652 167.755 157.02C174.773 142.33 180.387 126.733 195.665 117.029ZM136.957 154.57C138.554 157.686 139.295 155.2 139.966 154.015C141.699 150.953 143.284 147.809 145.03 144.507C143.017 143.028 140.817 141.658 138.905 139.963C131.151 133.095 122.82 126.58 122.908 114.671C122.917 113.462 122.021 111.687 121.015 111.126C116.987 108.881 112.732 107.048 108.594 104.995C101.839 101.645 94.4465 99.1257 88.5065 94.6758C76.2516 85.4951 64.8589 75.1717 52.9455 65.5233C47.3914 61.0252 41.4506 57.0046 35.6851 52.7675C38.1838 59.8359 41.2128 66.3407 45.0275 72.3464C48.2334 77.3936 51.7991 82.4696 56.1822 86.4599C66.2624 95.6369 78.118 101.983 90.7858 107.187C101.354 111.529 111.769 116.519 119.848 125.25C127.593 133.62 132.015 143.772 136.957 154.57ZM194.982 214.528C213.676 197.666 223.793 167.596 221.192 155.928C218.727 157.158 216.227 158.241 213.888 159.602C205.006 164.768 196.565 170.36 192.719 180.666C190.207 187.396 187.44 194.032 184.718 200.682C181.179 209.327 177.571 217.943 173.994 226.572C174.314 226.947 174.634 227.322 174.955 227.698C181.458 223.473 187.961 219.248 194.982 214.528ZM95.9641 195.636C102.329 209.123 117.243 222.316 131.854 227.384C129.244 218.546 123.716 210.935 121.353 201.949C120.057 197.021 117.519 192.431 116.054 187.535C111.189 171.267 99.1832 162.37 83.843 155.764C84.3253 170.242 88.1113 183.152 95.9641 195.636ZM221.999 124.614C221.999 121.893 221.999 119.172 221.999 116.417C218.6 118.089 215.558 119.469 212.625 121.052C204.44 125.471 195.142 128.441 190.235 137.31C187.233 142.736 184.192 148.176 181.705 153.845C177.536 163.35 172.136 172.91 179.267 183.407C179.336 183.508 179.474 183.562 179.58 183.638C184.4 169.634 190.724 157.236 221.999 143.434C221.999 137.538 221.999 131.561 221.999 124.614ZM89.3108 146.029C91.1618 147.015 93.0024 148.021 94.8656 148.984C104.921 154.18 114.185 160.337 119.936 170.499C122.363 174.786 124.445 179.269 126.335 182.976C130.393 176.248 131.83 168.875 127.059 161.168C125.053 157.926 123.436 154.314 122.341 150.66C116.597 131.496 101.025 123.72 84.1086 116.976C84.1086 126.094 84.1086 134.895 84.1086 143.459C85.6981 144.358 87.1069 145.155 89.3108 146.029ZM215.039 61.5626C217.457 55.8456 219.876 50.1286 222.294 44.4116C221.795 43.9853 221.295 43.5591 220.796 43.1328C214.645 46.8092 207.62 49.5812 202.603 54.4301C198.069 58.8112 195.269 65.2501 192.54 71.1669C189.189 78.4318 186.706 86.0969 183.691 93.9985C187.751 92.4443 191.192 91.4887 194.286 89.87C201.533 86.0788 208.239 81.7289 210.602 73.0025C211.597 69.3282 213.483 65.8953 215.039 61.5626ZM115.04 76.4293C114.018 73.5691 113.033 70.6948 111.966 67.8511C106.921 54.4008 95.8929 48.3799 83.0817 43.9823C86.9504 53.5623 90.6161 62.5964 94.2467 71.6446C96.7387 77.8552 99.3635 83.9912 105.781 87.2467C110.593 89.6882 115.502 91.9399 121.537 94.8373C119.28 88.1153 117.421 82.5812 115.04 76.4293ZM229.994 180.7C229.933 179.923 229.872 179.146 229.78 177.96C227.234 184.535 224.854 190.682 222.347 197.159C227.564 194.907 228.886 190.936 229.04 186.193C229.091 184.632 229.621 183.086 229.994 180.7Z" fill="#FFE26F"/>
<path d="M82.9066 196.13C83.324 196.489 83.5668 197.052 83.8097 197.616C83.4743 197.484 83.1389 197.353 82.6123 196.999C82.5247 196.629 82.6284 196.482 82.9066 196.13Z" fill="white"/>
<path d="M221.407 77.5704C221.115 78.11 220.676 78.4248 220.236 78.7397C220.277 78.2001 220.317 77.6605 220.638 77.0242C221.032 77.0669 221.145 77.2062 221.407 77.5704Z" fill="white"/>
<path d="M83.9045 76.1304C84.3219 76.4889 84.5648 77.0526 84.8078 77.6163C84.4724 77.4847 84.137 77.3531 83.6104 76.9987C83.5228 76.6291 83.6264 76.4824 83.9045 76.1304Z" fill="white"/>
</svg>
